<svg width="49" height="52" viewBox="0 0 49 52" fill="none" xmlns="http://www.w3.org/2000/svg">
<g clip-path="url(#clip0_615_2)">
<g clip-path="url(#clip1_615_2)">
<mask id="path-1-outside-1_615_2" maskUnits="userSpaceOnUse" x="-1.31558" y="-1.54717" width="51.3688" height="55.3229" fill="black">
<rect fill="white" x="-1.31558" y="-1.54717" width="51.3688" height="55.3229"/>
<path fill-rule="evenodd" clip-rule="evenodd" d="M6.74502 11.924L7.31988 11.8123L7.93229 14.9628C8.24629 16.5782 9.8334 17.6351 11.4681 17.3173C13.1028 16.9996 14.1784 15.4251 13.8644 13.8097L13.252 10.6592L18.017 9.73295L18.6294 12.8835C18.9434 14.4989 20.5305 15.5558 22.1652 15.238C23.7999 14.9203 24.8755 13.3458 24.5615 11.7304L23.9491 8.57986L28.714 7.65366L29.3264 10.8042C29.6404 12.4196 31.2275 13.4765 32.8622 13.1587C34.4969 12.841 35.5726 11.2665 35.2586 9.65115L34.6462 6.50056L35.221 6.38882C37.8697 5.87397 40.4551 7.59399 40.9642 10.2131L41.4618 12.773L3.35021 20.1793L2.85262 17.6195C2.34386 15.0021 4.09455 12.4392 6.74502 11.924ZM9.3895 6.6142C8.49367 6.78833 7.90099 7.65584 8.07307 8.54108L9.27049 14.7013C9.44256 15.5865 10.3171 16.1688 11.2129 15.9947C12.1087 15.8206 12.7014 14.9531 12.5293 14.0678L11.3319 7.90763C11.1581 7.02273 10.2853 6.44007 9.3895 6.6142ZM30.7854 2.45527C29.8895 2.6294 29.2968 3.49691 29.4689 4.38215L30.6663 10.5424C30.8384 11.4276 31.7129 12.0099 32.6087 11.8358C33.5046 11.6617 34.0972 10.7941 33.9252 9.9089L32.7277 3.7487C32.5557 2.86345 31.6812 2.28113 30.7854 2.45527ZM20.0868 4.53486C19.1909 4.709 18.5982 5.5765 18.7703 6.46175L19.9677 12.622C20.1398 13.5072 21.0143 14.0895 21.9101 13.9154C22.806 13.7413 23.3986 12.8737 23.2266 11.9885L22.0291 5.82829C21.8571 4.94305 20.9826 4.36073 20.0868 4.53486ZM41.7221 14.0931L46.4382 38.3551C46.947 40.9725 45.1964 43.5372 42.5459 44.0524L14.0665 49.5882C11.4179 50.1031 8.83251 48.3831 8.3234 45.7639L3.60733 21.5018L41.7221 14.0931ZM25.8206 30.3528C21.9887 31.0976 19.4784 34.772 20.2145 38.5586C20.9505 42.3452 24.6545 44.8117 28.4864 44.0668C32.3201 43.3216 34.8286 39.6476 34.0925 35.861C33.3565 32.0743 29.6543 29.6076 25.8206 30.3528ZM26.8397 33.6468C26.6574 33.3205 26.1566 33.4179 26.1114 33.7883L25.8399 35.9787C25.8196 36.1472 25.6953 36.2798 25.5261 36.3127L23.3352 36.735C22.9645 36.8052 22.9011 37.3076 23.2426 37.4637L25.2632 38.3875C25.4197 38.4584 25.5069 38.615 25.4848 38.7839L25.2038 40.9724C25.1566 41.3415 25.6191 41.5554 25.8751 41.2814L27.3959 39.662C27.5142 39.536 27.6905 39.5017 27.8474 39.5743L29.864 40.506C30.2037 40.6625 30.5545 40.2923 30.3707 39.9681L29.2903 38.0442C29.2066 37.8959 29.2288 37.718 29.3473 37.5936L30.8748 35.9802C31.1329 35.7076 30.888 35.2669 30.5159 35.3392L28.3264 35.7684C28.1571 35.8013 27.9925 35.7266 27.9102 35.5762L26.8397 33.6468ZM11.7584 36.4517C10.9154 36.6155 10.358 37.4292 10.5203 38.2639L11.337 42.4652C11.4989 43.2982 12.319 43.8458 13.1637 43.6817L17.4171 42.8549C18.26 42.691 18.8174 41.8774 18.6552 41.0427L17.8385 36.8413C17.6766 36.0084 16.8564 35.4607 16.0117 35.6249L11.7584 36.4517ZM32.7947 17.8573C31.9518 18.0212 31.3944 18.8348 31.5567 19.6695L32.3737 23.8726C32.5356 24.7055 33.3557 25.2532 34.2004 25.089L38.4538 24.2622C39.2967 24.0984 39.8541 23.2848 39.6919 22.4501L38.8748 18.247C38.7129 17.414 37.8928 16.8663 37.0481 17.0305L32.7947 17.8573ZM20.9179 20.1659C20.0749 20.3298 19.5176 21.1434 19.6798 21.9781L20.4968 26.1812C20.6587 27.0142 21.4789 27.5618 22.3236 27.3976L26.5752 26.5712C27.4181 26.4073 27.9755 25.5937 27.8132 24.759L26.9962 20.5559C26.8343 19.723 26.0142 19.1753 25.1695 19.3395L20.9179 20.1659ZM9.041 22.4746C8.19808 22.6384 7.6407 23.452 7.80295 24.2867L8.61995 28.4898C8.78186 29.3228 9.60202 29.8704 10.4467 29.7063L14.7001 28.8795C15.543 28.7156 16.1004 27.902 15.9381 27.0673L15.1211 22.8642C14.9592 22.0312 14.1391 21.4836 13.2944 21.6478L9.041 22.4746Z"/>
</mask>
<path fill-rule="evenodd" clip-rule="evenodd" d="M6.74502 11.924L7.31988 11.8123L7.93229 14.9628C8.24629 16.5782 9.8334 17.6351 11.4681 17.3173C13.1028 16.9996 14.1784 15.4251 13.8644 13.8097L13.252 10.6592L18.017 9.73295L18.6294 12.8835C18.9434 14.4989 20.5305 15.5558 22.1652 15.238C23.7999 14.9203 24.8755 13.3458 24.5615 11.7304L23.9491 8.57986L28.714 7.65366L29.3264 10.8042C29.6404 12.4196 31.2275 13.4765 32.8622 13.1587C34.4969 12.841 35.5726 11.2665 35.2586 9.65115L34.6462 6.50056L35.221 6.38882C37.8697 5.87397 40.4551 7.59399 40.9642 10.2131L41.4618 12.773L3.35021 20.1793L2.85262 17.6195C2.34386 15.0021 4.09455 12.4392 6.74502 11.924ZM9.3895 6.6142C8.49367 6.78833 7.90099 7.65584 8.07307 8.54108L9.27049 14.7013C9.44256 15.5865 10.3171 16.1688 11.2129 15.9947C12.1087 15.8206 12.7014 14.9531 12.5293 14.0678L11.3319 7.90763C11.1581 7.02273 10.2853 6.44007 9.3895 6.6142ZM30.7854 2.45527C29.8895 2.6294 29.2968 3.49691 29.4689 4.38215L30.6663 10.5424C30.8384 11.4276 31.7129 12.0099 32.6087 11.8358C33.5046 11.6617 34.0972 10.7941 33.9252 9.9089L32.7277 3.7487C32.5557 2.86345 31.6812 2.28113 30.7854 2.45527ZM20.0868 4.53486C19.1909 4.709 18.5982 5.5765 18.7703 6.46175L19.9677 12.622C20.1398 13.5072 21.0143 14.0895 21.9101 13.9154C22.806 13.7413 23.3986 12.8737 23.2266 11.9885L22.0291 5.82829C21.8571 4.94305 20.9826 4.36073 20.0868 4.53486ZM41.7221 14.0931L46.4382 38.3551C46.947 40.9725 45.1964 43.5372 42.5459 44.0524L14.0665 49.5882C11.4179 50.1031 8.83251 48.3831 8.3234 45.7639L3.60733 21.5018L41.7221 14.0931ZM25.8206 30.3528C21.9887 31.0976 19.4784 34.772 20.2145 38.5586C20.9505 42.3452 24.6545 44.8117 28.4864 44.0668C32.3201 43.3216 34.8286 39.6476 34.0925 35.861C33.3565 32.0743 29.6543 29.6076 25.8206 30.3528ZM26.8397 33.6468C26.6574 33.3205 26.1566 33.4179 26.1114 33.7883L25.8399 35.9787C25.8196 36.1472 25.6953 36.2798 25.5261 36.3127L23.3352 36.735C22.9645 36.8052 22.9011 37.3076 23.2426 37.4637L25.2632 38.3875C25.4197 38.4584 25.5069 38.615 25.4848 38.7839L25.2038 40.9724C25.1566 41.3415 25.6191 41.5554 25.8751 41.2814L27.3959 39.662C27.5142 39.536 27.6905 39.5017 27.8474 39.5743L29.864 40.506C30.2037 40.6625 30.5545 40.2923 30.3707 39.9681L29.2903 38.0442C29.2066 37.8959 29.2288 37.718 29.3473 37.5936L30.8748 35.9802C31.1329 35.7076 30.888 35.2669 30.5159 35.3392L28.3264 35.7684C28.1571 35.8013 27.9925 35.7266 27.9102 35.5762L26.8397 33.6468ZM11.7584 36.4517C10.9154 36.6155 10.358 37.4292 10.5203 38.2639L11.337 42.4652C11.4989 43.2982 12.319 43.8458 13.1637 43.6817L17.4171 42.8549C18.26 42.691 18.8174 41.8774 18.6552 41.0427L17.8385 36.8413C17.6766 36.0084 16.8564 35.4607 16.0117 35.6249L11.7584 36.4517ZM32.7947 17.8573C31.9518 18.0212 31.3944 18.8348 31.5567 19.6695L32.3737 23.8726C32.5356 24.7055 33.3557 25.2532 34.2004 25.089L38.4538 24.2622C39.2967 24.0984 39.8541 23.2848 39.6919 22.4501L38.8748 18.247C38.7129 17.414 37.8928 16.8663 37.0481 17.0305L32.7947 17.8573ZM20.9179 20.1659C20.0749 20.3298 19.5176 21.1434 19.6798 21.9781L20.4968 26.1812C20.6587 27.0142 21.4789 27.5618 22.3236 27.3976L26.5752 26.5712C27.4181 26.4073 27.9755 25.5937 27.8132 24.759L26.9962 20.5559C26.8343 19.723 26.0142 19.1753 25.1695 19.3395L20.9179 20.1659ZM9.041 22.4746C8.19808 22.6384 7.6407 23.452 7.80295 24.2867L8.61995 28.4898C8.78186 29.3228 9.60202 29.8704 10.4467 29.7063L14.7001 28.8795C15.543 28.7156 16.1004 27.902 15.9381 27.0673L15.1211 22.8642C14.9592 22.0312 14.1391 21.4836 13.2944 21.6478L9.041 22.4746Z" fill="#FFB1EA"/>
<path fill-rule="evenodd" clip-rule="evenodd" d="M6.74502 11.924L7.31988 11.8123L7.93229 14.9628C8.24629 16.5782 9.8334 17.6351 11.4681 17.3173C13.1028 16.9996 14.1784 15.4251 13.8644 13.8097L13.252 10.6592L18.017 9.73295L18.6294 12.8835C18.9434 14.4989 20.5305 15.5558 22.1652 15.238C23.7999 14.9203 24.8755 13.3458 24.5615 11.7304L23.9491 8.57986L28.714 7.65366L29.3264 10.8042C29.6404 12.4196 31.2275 13.4765 32.8622 13.1587C34.4969 12.841 35.5726 11.2665 35.2586 9.65115L34.6462 6.50056L35.221 6.38882C37.8697 5.87397 40.4551 7.59399 40.9642 10.2131L41.4618 12.773L3.35021 20.1793L2.85262 17.6195C2.34386 15.0021 4.09455 12.4392 6.74502 11.924ZM9.3895 6.6142C8.49367 6.78833 7.90099 7.65584 8.07307 8.54108L9.27049 14.7013C9.44256 15.5865 10.3171 16.1688 11.2129 15.9947C12.1087 15.8206 12.7014 14.9531 12.5293 14.0678L11.3319 7.90763C11.1581 7.02273 10.2853 6.44007 9.3895 6.6142ZM30.7854 2.45527C29.8895 2.6294 29.2968 3.49691 29.4689 4.38215L30.6663 10.5424C30.8384 11.4276 31.7129 12.0099 32.6087 11.8358C33.5046 11.6617 34.0972 10.7941 33.9252 9.9089L32.7277 3.7487C32.5557 2.86345 31.6812 2.28113 30.7854 2.45527ZM20.0868 4.53486C19.1909 4.709 18.5982 5.5765 18.7703 6.46175L19.9677 12.622C20.1398 13.5072 21.0143 14.0895 21.9101 13.9154C22.806 13.7413 23.3986 12.8737 23.2266 11.9885L22.0291 5.82829C21.8571 4.94305 20.9826 4.36073 20.0868 4.53486ZM41.7221 14.0931L46.4382 38.3551C46.947 40.9725 45.1964 43.5372 42.5459 44.0524L14.0665 49.5882C11.4179 50.1031 8.83251 48.3831 8.3234 45.7639L3.60733 21.5018L41.7221 14.0931ZM25.8206 30.3528C21.9887 31.0976 19.4784 34.772 20.2145 38.5586C20.9505 42.3452 24.6545 44.8117 28.4864 44.0668C32.3201 43.3216 34.8286 39.6476 34.0925 35.861C33.3565 32.0743 29.6543 29.6076 25.8206 30.3528ZM26.8397 33.6468C26.6574 33.3205 26.1566 33.4179 26.1114 33.7883L25.8399 35.9787C25.8196 36.1472 25.6953 36.2798 25.5261 36.3127L23.3352 36.735C22.9645 36.8052 22.9011 37.3076 23.2426 37.4637L25.2632 38.3875C25.4197 38.4584 25.5069 38.615 25.4848 38.7839L25.2038 40.9724C25.1566 41.3415 25.6191 41.5554 25.8751 41.2814L27.3959 39.662C27.5142 39.536 27.6905 39.5017 27.8474 39.5743L29.864 40.506C30.2037 40.6625 30.5545 40.2923 30.3707 39.9681L29.2903 38.0442C29.2066 37.8959 29.2288 37.718 29.3473 37.5936L30.8748 35.9802C31.1329 35.7076 30.888 35.2669 30.5159 35.3392L28.3264 35.7684C28.1571 35.8013 27.9925 35.7266 27.9102 35.5762L26.8397 33.6468ZM11.7584 36.4517C10.9154 36.6155 10.358 37.4292 10.5203 38.2639L11.337 42.4652C11.4989 43.2982 12.319 43.8458 13.1637 43.6817L17.4171 42.8549C18.26 42.691 18.8174 41.8774 18.6552 41.0427L17.8385 36.8413C17.6766 36.0084 16.8564 35.4607 16.0117 35.6249L11.7584 36.4517ZM32.7947 17.8573C31.9518 18.0212 31.3944 18.8348 31.5567 19.6695L32.3737 23.8726C32.5356 24.7055 33.3557 25.2532 34.2004 25.089L38.4538 24.2622C39.2967 24.0984 39.8541 23.2848 39.6919 22.4501L38.8748 18.247C38.7129 17.414 37.8928 16.8663 37.0481 17.0305L32.7947 17.8573ZM20.9179 20.1659C20.0749 20.3298 19.5176 21.1434 19.6798 21.9781L20.4968 26.1812C20.6587 27.0142 21.4789 27.5618 22.3236 27.3976L26.5752 26.5712C27.4181 26.4073 27.9755 25.5937 27.8132 24.759L26.9962 20.5559C26.8343 19.723 26.0142 19.1753 25.1695 19.3395L20.9179 20.1659ZM9.041 22.4746C8.19808 22.6384 7.6407 23.452 7.80295 24.2867L8.61995 28.4898C8.78186 29.3228 9.60202 29.8704 10.4467 29.7063L14.7001 28.8795C15.543 28.7156 16.1004 27.902 15.9381 27.0673L15.1211 22.8642C14.9592 22.0312 14.1391 21.4836 13.2944 21.6478L9.041 22.4746Z" stroke="#4242EB" stroke-width="4" mask="url(#path-1-outside-1_615_2)"/>
</g>
</g>
<defs>
<clipPath id="clip0_615_2">
<rect width="49" height="52" fill="white"/>
</clipPath>
<clipPath id="clip1_615_2">
<rect width="50.5875" height="61.3508" fill="white" transform="translate(-5.83594 3.7373) rotate(-11)"/>
</clipPath>
</defs>
</svg>
