<svg width="49" height="56" viewBox="0 0 49 56" fill="none" xmlns="http://www.w3.org/2000/svg">
<path d="M20.9921 48.1128L20.9911 48.1109C18.2081 48.9398 15.2673 47.3488 14.4384 44.5658L5.90645 15.9206L5.55629 14.7449L4.43006 15.2311C3.21987 15.7536 2.25117 16.6993 1.721 17.9246L1.72073 17.9252C1.17234 19.1947 1.15201 20.6058 1.66285 21.8876C1.66294 21.8878 1.66303 21.8881 1.66313 21.8883L13.2787 51.1429C13.279 51.1437 13.2794 51.1446 13.2797 51.1454C13.7848 52.4327 14.768 53.4458 16.039 53.9953L16.0412 53.9962C17.1676 54.4802 18.4081 54.5502 19.5761 54.2023C19.7121 54.1618 19.8565 54.1135 20.0016 54.0556L20.9921 48.1128ZM20.9921 48.1128L43.2595 41.4805L45.8416 40.7114L44.5203 43.0594C43.9673 44.0421 43.0963 44.8786 41.9422 45.3416L41.9387 45.343L20.0038 54.0547L20.9921 48.1128Z" fill="#FFB1EA" stroke="#4242EB" stroke-width="2.1796"/>
<path d="M27.5153 4.36611L28.9689 9.24637L28.9667 9.24685L29.3013 10.3701C29.6032 11.3838 30.6728 11.9671 31.692 11.6635L37.708 9.87167L39.7349 9.26796L38.067 7.96771C37.8651 7.81036 37.6249 7.63681 37.349 7.4852L37.349 7.48517L37.3416 7.48119L29.6876 3.35256C29.6874 3.35244 29.6872 3.35232 29.687 3.35221C29.4108 3.20285 29.1348 3.10159 28.9195 3.02632L26.9066 2.32233L27.5153 4.36611Z" fill="#FFB1EA" stroke="#4242EB" stroke-width="2.1796"/>
<path d="M38.0966 10.8002L38.0844 10.8036L38.0723 10.8072L31.3366 12.8134C30.2733 13.1301 29.1487 12.5217 28.832 11.4584L26.8258 4.72268L26.5147 3.67822L25.528 3.97211C25.5223 3.97306 25.5164 3.97407 25.5104 3.97515C25.4753 3.98143 25.4245 3.99184 25.3652 4.00949L8.6398 8.99111C5.90267 9.80636 4.34106 12.6928 5.15631 15.4299L14.1432 45.6027C14.9584 48.3399 17.8449 49.9015 20.582 49.0862L43.2112 42.3462C45.9483 41.5309 47.5099 38.6445 46.6948 35.9074C46.6947 35.9074 46.6947 35.9074 46.6947 35.9073L39.464 11.6232L39.464 11.6231C39.4473 11.5673 39.4296 11.5221 39.4172 11.4926C39.4161 11.4898 39.4149 11.487 39.4137 11.4843L39.1263 10.5194L38.0991 10.7996L38.0966 10.8002ZM23.0277 38.6214L23.0267 38.6233L21.4047 41.6183L21.4045 41.6187C21.4011 41.6248 21.3977 41.6286 21.3938 41.6317C21.3894 41.6353 21.3836 41.6383 21.3776 41.6401C21.3699 41.6424 21.3637 41.6427 21.3594 41.6422C21.3558 41.6419 21.3509 41.6409 21.3434 41.6369C21.3433 41.6369 21.3433 41.6369 21.3433 41.6368L19.3471 40.5569C19.3219 40.5432 19.3171 40.5177 19.3277 40.4981L19.3289 40.4958C19.3426 40.4706 19.3681 40.4658 19.3877 40.4764L19.39 40.4777L20.3881 41.0177L21.346 41.5359L21.8649 40.5784L22.9469 38.5815L22.9472 38.5809C22.9609 38.5556 22.9864 38.5508 23.006 38.5615L23.0083 38.5627C23.0336 38.5764 23.0383 38.6019 23.0277 38.6214ZM21.4079 33.1829L21.4069 33.1848L19.7848 36.1798L19.7846 36.1802C19.7813 36.1863 19.7778 36.1901 19.774 36.1932C19.7695 36.1968 19.7638 36.1998 19.7577 36.2016C19.7501 36.2039 19.7439 36.2042 19.7395 36.2038C19.7359 36.2034 19.731 36.2024 19.7235 36.1984C19.7235 36.1984 19.7235 36.1984 19.7235 36.1984L17.7273 35.1184C17.702 35.1047 17.6972 35.0792 17.7079 35.0597L17.7091 35.0574C17.7228 35.0321 17.7483 35.0273 17.7678 35.0379L17.7701 35.0392L18.7683 35.5792L19.7262 36.0974L20.245 35.1399L21.3271 33.143L21.3274 33.1424C21.3411 33.1172 21.3666 33.1123 21.3861 33.123L21.3884 33.1242C21.4138 33.1379 21.4185 33.1634 21.4079 33.1829ZM19.7874 27.7423L19.7864 27.7442L18.1644 30.7392L18.1642 30.7396C18.1608 30.7457 18.1574 30.7496 18.1535 30.7526C18.1491 30.7562 18.1433 30.7592 18.1373 30.761C18.1296 30.7633 18.1234 30.7636 18.119 30.7632C18.1155 30.7628 18.1105 30.7619 18.103 30.7578L16.1068 29.6778C16.0816 29.6642 16.0768 29.6386 16.0874 29.6191L16.0886 29.6168C16.1023 29.5915 16.1278 29.5867 16.1474 29.5974L16.1497 29.5986L17.1478 30.1386L18.1057 30.6569L18.6246 29.6993L19.7066 27.7025L19.7069 27.7018C19.7206 27.6766 19.7461 27.6718 19.7657 27.6824L19.768 27.6836C19.7933 27.6974 19.798 27.7229 19.7874 27.7423ZM18.167 22.3017L18.166 22.3036L16.5439 25.2986L16.5437 25.299C16.5404 25.3052 16.5369 25.309 16.5331 25.312C16.5286 25.3156 16.5229 25.3187 16.5168 25.3205C16.5091 25.3228 16.5029 25.323 16.4986 25.3226C16.495 25.3223 16.4901 25.3213 16.4826 25.3172C16.4826 25.3172 16.4826 25.3172 16.4825 25.3172L14.4864 24.2372C14.4611 24.2236 14.4563 24.1981 14.4669 24.1785L14.4682 24.1762C14.4818 24.151 14.5074 24.1462 14.5269 24.1568L14.5292 24.158L15.5274 24.6981L16.4853 25.2163L17.0041 24.2587L18.0861 22.2619L18.0865 22.2613C18.1001 22.236 18.1257 22.2312 18.1452 22.2418L18.1475 22.2431C18.1728 22.2568 18.1776 22.2823 18.167 22.3017ZM39.4664 35.3442L26.4107 39.2328C26.4035 39.235 26.3985 39.235 26.3943 39.2346C26.3893 39.234 26.3832 39.2323 26.3769 39.2289C26.3706 39.2255 26.3658 39.2213 26.3626 39.2174C26.3599 39.2142 26.3573 39.21 26.3551 39.2027C26.353 39.1955 26.3529 39.1905 26.3534 39.1863C26.3539 39.1813 26.3556 39.1752 26.359 39.1689C26.3625 39.1626 26.3666 39.1578 26.3705 39.1546C26.3737 39.1519 26.378 39.1493 26.3852 39.1471L39.4409 35.2585C39.4482 35.2564 39.4531 35.2563 39.4573 35.2567C39.4623 35.2573 39.4684 35.259 39.4747 35.2624C39.4811 35.2658 39.4858 35.27 39.489 35.2739C39.4917 35.2771 39.4943 35.2814 39.4965 35.2886C39.4987 35.2959 39.4988 35.3008 39.4983 35.305C39.4977 35.31 39.496 35.3161 39.4926 35.3224C39.4892 35.3287 39.485 35.3335 39.4811 35.3367C39.4779 35.3394 39.4737 35.342 39.4664 35.3442ZM37.8466 29.9057L24.7909 33.7943C24.7836 33.7965 24.7787 33.7966 24.7745 33.7961C24.7695 33.7955 24.7634 33.7938 24.7571 33.7904C24.7507 33.787 24.746 33.7828 24.7428 33.779C24.7401 33.7757 24.7375 33.7715 24.7353 33.7642C24.7331 33.757 24.7331 33.752 24.7335 33.7478C24.7341 33.7428 24.7358 33.7367 24.7392 33.7304C24.7426 33.7241 24.7468 33.7193 24.7507 33.7161C24.7539 33.7135 24.7581 33.7108 24.7654 33.7087L37.8211 29.8201C37.8283 29.8179 37.8333 29.8178 37.8375 29.8183C37.8425 29.8188 37.8486 29.8205 37.8549 29.8239C37.8612 29.8274 37.866 29.8315 37.8692 29.8354C37.8719 29.8387 37.8745 29.8429 37.8767 29.8501C37.8788 29.8574 37.8789 29.8623 37.8784 29.8665C37.8779 29.8715 37.8762 29.8776 37.8728 29.8839C37.8693 29.8903 37.8652 29.895 37.8613 29.8982C37.8581 29.9009 37.8538 29.9035 37.8466 29.9057ZM36.2261 24.4651L23.1704 28.3537C23.1632 28.3559 23.1582 28.356 23.154 28.3555C23.149 28.355 23.1429 28.3533 23.1366 28.3498C23.1303 28.3464 23.1255 28.3422 23.1223 28.3384C23.1196 28.3351 23.117 28.3309 23.1148 28.3237C23.1127 28.3164 23.1126 28.3114 23.1131 28.3073C23.1136 28.3023 23.1153 28.2962 23.1187 28.2898C23.1222 28.2835 23.1263 28.2788 23.1302 28.2756C23.1335 28.2729 23.1377 28.2702 23.1449 28.2681L36.2006 24.3795C36.2079 24.3773 36.2128 24.3772 36.217 24.3777C36.222 24.3782 36.2281 24.3799 36.2344 24.3834C36.2408 24.3868 36.2455 24.391 36.2487 24.3948C36.2514 24.3981 36.254 24.4023 36.2562 24.4095C36.2568 24.4117 36.2573 24.4136 36.2576 24.4154C36.2584 24.4197 36.2583 24.423 36.258 24.426C36.2574 24.4309 36.2557 24.437 36.2523 24.4434C36.2511 24.4455 36.2499 24.4475 36.2486 24.4492C36.2461 24.4527 36.2434 24.4555 36.2408 24.4576C36.2376 24.4603 36.2334 24.463 36.2261 24.4651ZM34.6057 19.0245L21.55 22.9132C21.5427 22.9153 21.5377 22.9154 21.5336 22.9149C21.5286 22.9144 21.5225 22.9127 21.5161 22.9093C21.5098 22.9058 21.5051 22.9017 21.5019 22.8978C21.4992 22.8946 21.4965 22.8903 21.4944 22.8831C21.4922 22.8758 21.4921 22.8709 21.4926 22.8667C21.4932 22.8617 21.4949 22.8556 21.4983 22.8493C21.5017 22.843 21.5059 22.8382 21.5097 22.835C21.513 22.8323 21.5172 22.8297 21.5245 22.8275L34.5802 18.9389C34.5874 18.9367 34.5924 18.9366 34.5966 18.9371C34.6016 18.9377 34.6077 18.9394 34.614 18.9428C34.6203 18.9462 34.6251 18.9504 34.6283 18.9543C34.6309 18.9575 34.6336 18.9617 34.6357 18.969C34.6379 18.9762 34.638 18.9812 34.6375 18.9854C34.637 18.9904 34.6353 18.9965 34.6318 19.0028C34.6284 19.0091 34.6243 19.0139 34.6204 19.0171C34.6192 19.0181 34.6179 19.019 34.6163 19.02C34.6136 19.0216 34.6102 19.0232 34.6057 19.0245Z" fill="#FFB1EA" stroke="#4242EB" stroke-width="2.1796"/>
</svg>
