<svg width="50" height="50" viewBox="0 0 50 50" fill="none" xmlns="http://www.w3.org/2000/svg">
<g clip-path="url(#clip0_615_13)">
<g clip-path="url(#clip1_615_13)">
<path d="M26.6373 7.59931L26.0819 6.02724C25.346 3.94444 23.0547 2.85957 20.9809 3.58516L13.4304 6.22685C11.3566 6.95243 10.2517 9.22552 10.9876 11.3083L11.5431 12.8804C12.2789 14.9632 14.5702 16.0481 16.6441 15.3225L24.1945 12.6808C26.2683 11.9552 27.3732 9.68211 26.6373 7.59931Z" fill="#FFB1EA" stroke="#3534FF" stroke-width="2"/>
<path d="M23.7403 32.9722C24.0319 33.1609 24.3866 33.2226 24.7228 33.146C24.772 33.1349 24.819 33.1215 24.865 33.1054C25.1409 33.0089 25.3766 32.8199 25.5327 32.5689M23.7403 32.9722L25.5327 32.5689M23.7403 32.9722L19.8977 30.5156L23.7403 32.9722ZM25.5327 32.5689L24.6818 32.0406C24.6817 32.0408 24.6816 32.041 24.6814 32.0412L24.6803 32.043L25.5327 32.5689ZM24.02 30.0903L23.1678 29.5642L23.176 29.5509L24.02 30.0903ZM24.02 30.0903L24.5583 29.2493L24.5451 29.2409L24.02 30.0903ZM27.0972 5.47936L26.1533 5.80958L26.4864 6.75245L26.7641 7.53818C27.5233 9.68681 26.3888 12.0595 24.2323 12.8139L16.6841 15.4546C14.5276 16.209 12.1504 15.0649 11.3912 12.9163L11.1135 12.1305L10.7804 11.1877L9.83647 11.5179L7.18514 12.4454C3.67204 13.6745 1.83717 17.518 3.07827 21.0303L11.3787 44.5211C12.6198 48.0334 16.4683 49.8887 19.9814 48.6596L42.5448 40.766C46.0579 39.537 47.8927 35.6935 46.6516 32.1811L38.3512 8.69037C37.1101 5.178 33.2616 3.32278 29.7485 4.55181L27.0972 5.47936ZM20.7459 29.1829C20.7461 29.183 20.7463 29.1832 20.7465 29.1833L21.2832 28.3413L20.7449 29.1823L20.7459 29.1829ZM29.0026 23.9357C29.0027 23.9355 29.0028 23.9353 29.0029 23.9352L29.003 23.935L28.1514 23.4093L29.0026 23.9357ZM29.4956 24.2503L30.3482 24.7757L29.4959 24.2498L29.4956 24.2503ZM29.3979 23.8399C29.3987 23.8404 29.3995 23.8409 29.4003 23.8414C29.4011 23.8419 29.4019 23.8424 29.4027 23.8429L29.9283 22.9941L29.3979 23.8399Z" fill="#FFB1EA" stroke="#3534FF" stroke-width="2"/>
</g>
</g>
<defs>
<clipPath id="clip0_615_13">
<rect width="50" height="50" fill="white"/>
</clipPath>
<clipPath id="clip1_615_13">
<rect width="52" height="65" fill="white" transform="translate(-2)"/>
</clipPath>
</defs>
</svg>
